<svg id="visual" viewBox="0 0 1920 1080" width="1920" height="1080" xmlns="http://www.w3.org/2000/svg" xmlns:xlink="http://www.w3.org/1999/xlink" version="1.1"><rect x="0" y="0" width="1920" height="1080" fill="#322e27"></rect><path d="M0 379L213 212L427 424L640 243L853 263L1067 297L1280 240L1493 237L1707 269L1920 424L1920 0L1707 0L1493 0L1280 0L1067 0L853 0L640 0L427 0L213 0L0 0Z" fill="#888277"></path><path d="M0 309L213 356L427 209L640 177L853 345L1067 164L1280 191L1493 253L1707 269L1920 224L1920 0L1707 0L1493 0L1280 0L1067 0L853 0L640 0L427 0L213 0L0 0Z" fill="#a5a097"></path><path d="M0 144L213 234L427 146L640 291L853 188L1067 296L1280 170L1493 171L1707 167L1920 266L1920 0L1707 0L1493 0L1280 0L1067 0L853 0L640 0L427 0L213 0L0 0Z" fill="#c2bfb9"></path><path d="M0 179L213 104L427 224L640 140L853 200L1067 203L1280 218L1493 163L1707 120L1920 102L1920 0L1707 0L1493 0L1280 0L1067 0L853 0L640 0L427 0L213 0L0 0Z" fill="#e0dfdb"></path><path d="M0 86L213 148L427 130L640 86L853 81L1067 99L1280 123L1493 147L1707 104L1920 120L1920 0L1707 0L1493 0L1280 0L1067 0L853 0L640 0L427 0L213 0L0 0Z" fill="#ffffff"></path></svg>